<svg width="28" height="24" viewBox="0 0 28 24" fill="none" xmlns="http://www.w3.org/2000/svg">
<g id="contactus" clip-path="url(#clip0_123_487)">
<path id="Path 21744" d="M9.67619 5.50578H25.5541L16.8805 12.1541C16.7063 12.2841 16.498 12.3632 16.2796 12.3823C16.0601 12.3628 15.8506 12.2838 15.6747 12.1541L9.47644 7.40048C9.4109 7.34862 9.33582 7.30946 9.25523 7.2851C9.55596 6.87366 9.71347 6.37886 9.70459 5.87351C9.70199 5.7502 9.69252 5.62712 9.67619 5.50482V5.50578ZM5.63821 1.23007C5.68128 1.24155 5.72292 1.25766 5.76236 1.27809C5.98361 1.40045 6.18163 1.55907 6.34775 1.74701C6.79192 2.24803 7.16648 2.80403 7.46174 3.40064C7.469 3.4145 7.47627 3.42964 7.4832 3.44511C8.1343 4.53571 8.41527 5.3701 8.42386 5.89445C8.45326 6.10273 8.41111 6.31465 8.304 6.49705C8.19688 6.67946 8.03084 6.82206 7.83186 6.90255L6.65381 7.5642C6.31083 7.77004 6.02189 8.05131 5.81007 8.38554C5.59825 8.71977 5.46941 9.09771 5.43384 9.48919C5.33624 10.1698 5.46652 10.863 5.80528 11.4654L8.71276 16.3567C9.08292 16.9443 9.63645 17.4004 10.292 17.6581C10.6582 17.8239 11.059 17.9045 11.4626 17.8933C11.8662 17.8821 12.2616 17.7795 12.6177 17.5936L13.7957 16.9323C13.9686 16.806 14.179 16.7384 14.3949 16.7399C14.6109 16.7414 14.8203 16.8119 14.9913 16.9407C15.4562 17.2104 16.0594 17.8614 16.7082 18.9527C16.7174 18.9688 16.726 18.9823 16.7366 18.9978C17.1199 19.5433 17.4284 20.1356 17.6541 20.7594C17.7384 20.9924 17.7809 21.238 17.7796 21.4852C17.7657 21.637 17.7624 21.6212 17.7215 21.6463L16.825 22.1478C15.8538 22.5862 14.791 22.7968 13.7214 22.7628C12.6519 22.7288 11.6054 22.4512 10.6654 21.9521C8.81643 21.0146 7.21147 19.321 6.09187 17.3332C6.08823 17.3293 6.08658 17.3242 6.08328 17.3216L3.63045 13.1964C3.62684 13.1925 3.62373 13.1882 3.6212 13.1835C2.40783 11.2472 1.7006 9.04927 1.78942 7.02792C1.81405 5.98723 2.09004 4.96692 2.59492 4.05C3.0998 3.13308 3.81931 2.34545 4.69491 1.7512L5.59067 1.24844C5.61147 1.23684 5.61807 1.22782 5.63722 1.23007H5.63821ZM5.64746 0.000566225C5.40376 -0.00644282 5.16273 0.0517325 4.95047 0.168797L4.00255 0.700885C3.98109 0.712809 3.96161 0.725056 3.94246 0.73698C2.91648 1.44786 2.07272 2.3806 1.47707 3.46237C0.881423 4.54415 0.550001 5.74567 0.508687 6.97313C0.406994 9.31064 1.20535 11.7229 2.52603 13.8316L4.96929 17.9433L4.96367 17.931C6.1853 20.0955 7.93256 21.9731 10.0694 23.0553C11.1838 23.6346 12.4195 23.9565 13.6814 23.9965C14.9434 24.0364 16.1978 23.7933 17.3484 23.2857C17.3699 23.2771 17.3907 23.267 17.4108 23.2554L18.3603 22.723C18.5601 22.6018 18.7274 22.4358 18.8484 22.2388C18.9693 22.0419 19.0405 21.8197 19.056 21.5905C19.0799 21.1791 19.0186 20.7672 18.8757 20.3794C18.6189 19.6448 18.2575 18.9492 17.802 18.3129C17.1037 17.1405 16.4295 16.3267 15.6503 15.8717C15.2739 15.6507 14.8436 15.5325 14.4044 15.5292C13.9652 15.5259 13.5331 15.6377 13.1532 15.853L11.9752 16.5159C11.7919 16.6072 11.589 16.6545 11.3832 16.6539C11.1774 16.6532 10.9748 16.6046 10.7922 16.512C10.401 16.3469 10.0657 16.0772 9.82477 15.734L6.91795 10.8421C6.73224 10.4679 6.6593 10.0499 6.70763 9.63679C6.71678 9.43729 6.7751 9.24289 6.87764 9.07009C6.98019 8.89728 7.12392 8.75117 7.29666 8.64416L8.44103 8.00185C8.47102 8.15239 8.55728 8.28667 8.68304 8.3786L14.8817 13.1323C15.2717 13.4336 15.7468 13.611 16.2433 13.6408C16.268 13.6421 16.2928 13.6421 16.3176 13.6408C16.8135 13.6109 17.2881 13.4334 17.6775 13.1323L26.2151 6.58575V17.4012C26.2151 17.5659 26.0229 17.7825 25.6459 17.7825H19.7352C19.6501 17.7806 19.5655 17.7953 19.4864 17.8258C19.4072 17.8562 19.3351 17.9018 19.2743 17.9599C19.2134 18.0179 19.1651 18.0873 19.1321 18.1638C19.0991 18.2403 19.0821 18.3225 19.0821 18.4056C19.0821 18.4886 19.0991 18.5708 19.1321 18.6474C19.1651 18.7239 19.2134 18.7933 19.2743 18.8513C19.3351 18.9094 19.4072 18.955 19.4864 18.9854C19.5655 19.0159 19.6501 19.0306 19.7352 19.0287H25.6452C26.6113 19.0287 27.4991 18.3471 27.4991 17.4012V5.88575C27.4991 4.93921 26.6113 4.25791 25.6452 4.25791H9.32456C9.11939 3.76911 8.87875 3.29522 8.60446 2.83987C8.2631 2.13874 7.82266 1.48783 7.296 0.906178C7.02167 0.591845 6.68552 0.33442 6.30747 0.149138V0.150749C6.10051 0.056549 5.87575 0.00540444 5.64746 0.000566225Z" fill="#808D95"/>
</g>
<defs>
<clipPath id="clip0_123_487">
<rect width="27" height="24" fill="white" transform="translate(0.5)"/>
</clipPath>
</defs>
</svg>
