<svg width="28" height="25" viewBox="0 0 28 25" fill="none" xmlns="http://www.w3.org/2000/svg">
<g id="Home (2)">
<path id="Path 842" d="M26.8028 10.1336L26.8028 10.1336C26.9712 10.257 27.0835 10.4431 27.1153 10.6491C27.1471 10.8553 27.0957 11.0657 26.9724 11.2339C26.8491 11.4022 26.664 11.5147 26.4579 11.5465C26.2517 11.5783 26.0413 11.5269 25.873 11.4036C25.873 11.4036 25.873 11.4036 25.873 11.4036L13.8096 2.57066L1.74721 11.4029C1.66429 11.4667 1.56949 11.5133 1.46834 11.54C1.36676 11.5669 1.26084 11.5731 1.15682 11.5583C1.0528 11.5436 0.952781 11.5082 0.862661 11.4542C0.772539 11.4002 0.69414 11.3287 0.632083 11.2439C0.570026 11.1591 0.525565 11.0628 0.501322 10.9606C0.477079 10.8584 0.473545 10.7523 0.490926 10.6487C0.508308 10.5451 0.546254 10.446 0.602528 10.3573C0.658572 10.2689 0.731663 10.1926 0.817527 10.1329L13.3461 0.960369L13.3461 0.96033L13.4052 1.04102C13.5229 0.954727 13.665 0.908203 13.811 0.908203C13.9569 0.908203 14.0991 0.954727 14.2168 1.04102L26.8028 10.1336ZM26.8028 10.1336L14.2759 0.960369L26.8028 10.1336Z" fill="#808D95" stroke="#808D95" stroke-width="0.2"/>
<path id="Path 843" d="M22.6365 12.1619V22.9925H17.3407L17.3407 17.1261L17.3407 17.1245C17.3257 16.1972 16.9469 15.3129 16.2858 14.6624C15.6247 14.012 14.7345 13.6474 13.807 13.6474C12.8796 13.6474 11.9893 14.012 11.3282 14.6624C10.6672 15.3129 10.2883 16.1972 10.2733 17.1245H10.2733V17.1261V22.9925H4.97935V12.1628C4.97935 11.9541 4.89646 11.754 4.74891 11.6065C4.60137 11.4589 4.40126 11.376 4.1926 11.376C3.98394 11.376 3.78384 11.4589 3.63629 11.6065C3.48875 11.754 3.40586 11.9541 3.40586 12.1628L3.40586 23.7806L3.40586 23.7807C3.40613 23.9891 3.48905 24.189 3.63642 24.3363C3.7838 24.4837 3.9836 24.5666 4.19202 24.5669H4.19215H11.0596H11.0597C11.2576 24.5667 11.4482 24.4919 11.5934 24.3573C11.7386 24.2228 11.8277 24.0384 11.8429 23.8411L11.8429 23.8411L11.8431 23.8386C11.8441 23.8182 11.8442 23.7977 11.8432 23.7772V17.1261C11.8432 16.6062 12.0497 16.1076 12.4173 15.74C12.785 15.3724 13.2836 15.1659 13.8034 15.1659C14.3233 15.1659 14.8219 15.3724 15.1895 15.74C15.5571 16.1076 15.7637 16.6062 15.7637 17.1261V23.7772C15.7627 23.7974 15.7627 23.8176 15.7638 23.8378L15.7638 23.8378L15.764 23.8402C15.7792 24.0375 15.8683 24.2219 16.0135 24.3564C16.1587 24.491 16.3492 24.5658 16.5472 24.566H16.5473H23.4147C23.6232 24.566 23.8232 24.4832 23.9707 24.3357C24.1182 24.1882 24.201 23.9883 24.201 23.7797V12.1628C24.201 11.954 24.1181 11.7538 23.9704 11.6062C23.8249 11.4606 23.6283 11.378 23.4228 11.3756V11.3756H23.4138V11.3756C23.2086 11.3782 23.0123 11.4609 22.867 11.6062C22.7197 11.7535 22.6367 11.9533 22.6365 12.1618V12.1619Z" fill="#808D95" stroke="#808D95" stroke-width="0.2"/>
</g>
</svg>
