<svg width="294" height="144" viewBox="0 0 294 144" fill="none" xmlns="http://www.w3.org/2000/svg">
<path d="M63.8059 130.401H59.4619V128.833H70.0318V130.401H65.6697V143.106H63.8059V130.401Z" fill="white"/>
<path d="M72.7655 138.617L71.2793 143.106H69.3701L74.2216 128.833H76.451L81.3175 143.106H79.3479L77.8254 138.617H72.7625H72.7655ZM77.4448 137.176L76.0462 133.068C75.729 132.135 75.5175 131.289 75.3061 130.461H75.2638C75.0523 131.31 74.8227 132.18 74.5418 133.05L73.1431 137.176H77.4418H77.4448Z" fill="white"/>
<path d="M85.6894 128.833V143.106H83.8467V128.833H85.6894Z" fill="white"/>
<path d="M89.332 128.833H91.1717V141.56H97.2768V143.106H89.332V128.833Z" fill="white"/>
<path d="M111.131 135.823C111.131 140.735 108.146 143.342 104.503 143.342C100.86 143.342 98.084 140.421 98.084 136.095C98.084 131.769 100.899 128.6 104.715 128.6C108.53 128.6 111.131 131.585 111.131 135.823ZM100.054 136.056C100.054 139.104 101.709 141.834 104.609 141.834C107.509 141.834 109.18 139.146 109.18 135.908C109.18 133.065 107.699 130.101 104.627 130.101C101.555 130.101 100.051 132.92 100.051 136.056H100.054Z" fill="white"/>
<path d="M113.949 129.023C114.883 128.836 116.215 128.73 117.49 128.73C119.456 128.73 120.731 129.086 121.619 129.893C122.341 130.527 122.746 131.503 122.746 132.606C122.746 134.491 121.559 135.741 120.057 136.249V136.312C121.157 136.693 121.815 137.714 122.151 139.194C122.619 141.182 122.96 142.559 123.253 143.109H121.35C121.118 142.707 120.797 141.481 120.396 139.702C119.973 137.729 119.208 136.989 117.535 136.929H115.798V143.109H113.955V129.023H113.949ZM115.792 135.524H117.68C119.647 135.524 120.9 134.442 120.9 132.814C120.9 130.971 119.562 130.171 117.613 130.147C116.725 130.147 116.091 130.228 115.792 130.313V135.524Z" fill="white"/>
<path d="M127.618 128.833V143.106H125.775V128.833H127.618Z" fill="white"/>
<path d="M131.258 143.106V128.833H133.267L137.846 136.056C138.904 137.726 139.728 139.23 140.408 140.696L140.453 140.674C140.278 138.771 140.242 137.031 140.242 134.808V128.836H141.976V143.109H140.112L135.578 135.871C134.581 134.279 133.629 132.645 132.91 131.104L132.841 131.129C132.947 132.926 132.992 134.642 132.992 137.016V143.115H131.255L131.258 143.106Z" fill="white"/>
<path d="M156.488 142.475C155.664 142.774 154.032 143.257 152.105 143.257C149.945 143.257 148.16 142.704 146.761 141.372C145.535 140.191 144.773 138.279 144.773 136.055C144.792 131.796 147.716 128.682 152.504 128.682C154.159 128.682 155.452 129.044 156.062 129.34L155.615 130.848C154.851 130.503 153.899 130.231 152.455 130.231C148.988 130.231 146.722 132.391 146.722 135.971C146.722 139.551 148.897 141.732 152.229 141.732C153.431 141.732 154.262 141.562 154.685 141.354V137.092H151.782V135.611H156.482V142.475H156.488Z" fill="white"/>
<path d="M164.222 129.023C165.345 128.854 166.678 128.73 168.14 128.73C170.789 128.73 172.674 129.343 173.928 130.506C175.193 131.678 175.936 133.328 175.936 135.636C175.936 137.944 175.215 139.871 173.882 141.182C172.55 142.52 170.345 143.236 167.569 143.236C166.258 143.236 165.155 143.176 164.222 143.067V129.023ZM166.067 141.647C166.533 141.732 167.212 141.753 167.931 141.753C171.876 141.753 174.015 139.551 174.015 135.693C174.039 132.328 172.13 130.186 168.227 130.186C167.276 130.186 166.557 130.274 166.07 130.379V141.65L166.067 141.647Z" fill="white"/>
<path d="M180.601 128.833V143.106H178.758V128.833H180.601Z" fill="white"/>
<path d="M195.109 142.475C194.285 142.774 192.653 143.257 190.726 143.257C188.566 143.257 186.787 142.704 185.385 141.372C184.162 140.191 183.397 138.279 183.397 136.055C183.419 131.796 186.346 128.682 191.128 128.682C192.783 128.682 194.076 129.044 194.689 129.34L194.242 130.848C193.475 130.503 192.523 130.231 191.089 130.231C187.612 130.231 185.346 132.391 185.346 135.971C185.346 139.551 187.53 141.732 190.85 141.732C192.061 141.732 192.886 141.562 193.309 141.354V137.092H190.406V135.611H195.106V142.475H195.109Z" fill="white"/>
<path d="M200.197 128.833V143.106H198.349V128.833H200.197Z" fill="white"/>
<path d="M206.552 130.401H202.208V128.833H212.778V130.401H208.416V143.106H206.552V130.401Z" fill="white"/>
<path d="M215.509 138.617L214.029 143.106H212.126L216.977 128.833H219.204L224.073 143.106H222.101L220.575 138.617H215.512H215.509ZM220.195 137.176L218.796 133.068C218.479 132.135 218.267 131.289 218.056 130.461H218.011C217.799 131.31 217.563 132.18 217.292 133.05L215.893 137.176H220.192H220.195Z" fill="white"/>
<path d="M226.596 128.833H228.439V141.56H234.535V143.106H226.593V128.833H226.596Z" fill="white"/>
<path d="M175.658 33.4317C175.658 49.267 162.835 62.0934 146.994 62.0934C131.152 62.0934 118.338 49.27 118.338 33.4317C118.338 26.6681 120.682 20.4633 124.606 15.5635L129.944 24.8223C128.63 27.4112 127.887 30.3384 127.887 33.4317C127.887 43.6331 135.88 51.9525 145.927 52.5023C146.284 52.5264 146.637 52.5385 146.991 52.5385C147.344 52.5385 147.709 52.5264 148.063 52.5023C158.113 51.9525 166.097 43.6331 166.097 33.4317C166.097 30.3384 165.363 27.4112 164.049 24.8223L169.39 15.5635C173.311 20.4633 175.655 26.6681 175.655 33.4317H175.658Z" fill="#F27822"/>
<path d="M156.552 4.77896H151.776V0H142.221V38.2136H151.776V14.3339H156.552V4.77896Z" fill="#F27822"/>
<path d="M8.89032 92.7881H0V87.3022H24.3087V92.7881H15.4153V118.405H8.89032V92.7881Z" fill="white"/>
<path d="M54.0516 106.482C54.0516 110.496 52.9308 113.49 50.6863 115.457C48.4419 117.423 45.3395 118.408 41.3761 118.408C37.4128 118.408 34.253 117.429 32.0508 115.478C29.8486 113.526 28.749 110.53 28.749 106.482V87.3054H35.268V106.482C35.268 107.285 35.3405 108.074 35.4795 108.853C35.6184 109.626 35.9084 110.321 36.3494 110.931C36.7905 111.539 37.4098 112.022 38.2012 112.384C38.9897 112.744 40.047 112.925 41.3761 112.925C43.7082 112.925 45.3153 112.403 46.2004 111.369C47.0855 110.327 47.5296 108.702 47.5296 106.485V87.3084H54.0546V106.485L54.0516 106.482Z" fill="white"/>
<path d="M58.4983 87.3022H74.4937C75.8228 87.3022 77.013 87.5167 78.0824 87.9487C79.1518 88.3777 80.0671 88.9667 80.8253 89.7129C81.5896 90.459 82.1696 91.3351 82.5683 92.3319C82.9701 93.3288 83.1725 94.3801 83.1725 95.4917C83.1725 97.2348 82.804 98.7452 82.0729 100.017C81.3328 101.292 80.1396 102.264 78.4781 102.929V103.011C79.2817 103.231 79.9463 103.569 80.4689 104.032C80.9945 104.488 81.4204 105.038 81.7588 105.672C82.088 106.306 82.3297 106.995 82.4838 107.723C82.6378 108.463 82.7889 110.551 82.8402 111.303C82.8704 111.774 82.8976 112.327 82.9218 112.964C82.952 113.599 82.9973 114.242 83.0728 114.898C83.1363 115.55 83.248 116.181 83.4021 116.789C83.5531 117.396 83.7857 117.906 84.0878 118.323H77.5628C77.3665 117.855 77.2215 117.335 77.1278 116.768C77.0312 116.203 76.9466 115.604 76.8771 114.982C76.8046 114.36 76.7532 113.722 76.7079 113.07C76.6717 112.424 76.6022 111.801 76.5206 111.224C76.3031 109.672 75.7866 107.188 75.0646 106.466C74.3456 105.747 73.1675 105.382 71.5332 105.382H65.0082V118.323H58.4893V87.3113L58.4983 87.3022ZM65.0173 100.721H72.1646C73.6327 100.721 74.7504 100.385 75.5056 99.727C76.2699 99.0593 76.6536 97.9779 76.6536 96.4826C76.6536 94.9873 76.2699 93.9964 75.5056 93.3469C74.7474 92.6975 73.6297 92.3682 72.1646 92.3682H65.0173V100.724V100.721Z" fill="white"/>
<path d="M87.7764 87.3022H94.2561L106.645 108.551H106.723V87.3022H112.831V118.314H106.306L93.9691 97.1079H93.8875V118.314H87.7794V87.3022H87.7764Z" fill="white"/>
<path d="M130.605 87.2419H143.399C145.311 87.2419 147.09 87.5471 148.74 88.1573C150.383 88.7645 151.812 89.6767 153.017 90.8972C154.225 92.1206 155.165 93.6401 155.845 95.4707C156.521 97.2983 156.863 100.944 156.863 103.409C156.863 105.566 156.585 107.563 156.032 109.394C155.476 111.221 154.639 112.801 153.519 114.127C152.395 115.457 150.999 116.505 149.326 117.266C147.646 118.027 145.673 118.405 143.399 118.405H130.605V87.2419ZM137.127 112.922H142.943C143.888 112.922 144.803 112.768 145.689 112.466C146.574 112.161 147.362 111.656 148.051 110.949C148.749 110.24 149.304 109.321 149.715 108.185C150.132 107.053 150.338 105.666 150.338 104.032C150.338 102.533 150.196 99.6848 149.903 98.4825C149.61 97.2742 149.138 96.2471 148.471 95.3831C147.803 94.5282 146.924 93.8667 145.834 93.4105C144.743 92.9544 143.384 92.7278 141.783 92.7278H137.127V112.922Z" fill="white"/>
<path d="M161.31 87.3022H167.829V118.405H161.31V87.3022Z" fill="white"/>
<path d="M195.004 114.245C193.835 115.737 192.552 116.792 191.132 117.405C189.721 118.012 188.295 118.317 186.854 118.317C184.555 118.317 182.501 117.915 180.71 117.112C178.906 116.308 177.384 115.215 176.139 113.828C174.886 112.445 173.934 110.807 173.27 108.925C172.605 107.043 172.267 105.035 172.267 102.902C172.267 100.769 172.605 98.6666 173.27 96.7574C173.934 94.8452 174.886 93.1777 176.139 91.767C177.381 90.3563 178.903 89.2446 180.71 88.4441C182.504 87.6405 184.555 87.2388 186.854 87.2388C188.377 87.2388 189.851 87.4683 191.28 87.9245C192.706 88.3806 193.989 89.0482 195.122 89.9364C196.258 90.8245 197.21 91.9211 197.971 93.223C198.729 94.525 199.197 96.0203 199.364 97.709H193.129C192.742 96.0475 191.987 94.7969 190.863 93.9692C189.745 93.1415 188.407 92.7246 186.857 92.7246C185.308 92.7246 184.142 93.0086 183.117 93.5765C182.096 94.1474 181.26 94.9056 180.631 95.8602C179.985 96.8178 179.529 97.9053 179.233 99.1197C178.943 100.343 178.798 101.603 178.798 102.902C178.798 104.201 178.943 105.364 179.233 106.542C179.529 107.72 179.988 108.777 180.631 109.717C181.263 110.662 182.099 111.418 183.117 111.982C184.142 112.553 185.386 112.837 186.857 112.837C188.987 112.837 190.654 112.291 191.839 111.194C193.032 110.097 193.727 108.515 193.917 106.436H187.356V101.576H199.823V117.613H195.666L195.007 114.248L195.004 114.245Z" fill="white"/>
<path d="M250.793 87.3022H257.481L268.574 118.405H261.801L259.562 111.798H248.467L246.141 118.405H239.531L250.793 87.3022ZM250.171 105.5H257.859L254.119 94.6127H254.037L250.174 105.5H250.171Z" fill="white"/>
<path d="M273.017 87.3022H279.545V112.919H293.999V118.405H273.017V87.3022Z" fill="white"/>
<path d="M224.122 92.7881H215.229V87.3022H239.534V92.7881H230.644V118.405H224.125V92.7881H224.122Z" fill="white"/>
<path d="M204.263 87.3022H210.791V118.405H204.263V87.3022Z" fill="white"/>
</svg>
