<svg width="342" height="54" viewBox="0 0 342 54" fill="none" xmlns="http://www.w3.org/2000/svg">
<path d="M83.4871 41.2607H79.5762V39.8918H89.3534V41.2607H85.4425V52.9933H83.6826V41.2607H83.4871Z" fill="black"/>
<path d="M91.699 48.6911L90.3302 52.7975H88.5703L93.0678 39.696H95.0233L99.5208 52.7975H97.7609L96.3921 48.6911H91.699ZM96.001 47.5178L94.6322 43.8025C94.6322 43.8025 94.2411 42.2381 94.0456 41.4559C94.0456 41.4559 93.6545 43.0203 93.4589 43.8025L92.0901 47.5178H96.001Z" fill="black"/>
<path d="M103.631 39.8918V52.9933H101.871V39.8918H103.631Z" fill="black"/>
<path d="M106.95 39.8918H108.71V51.6245H114.381V52.9933H107.146V39.8918H106.95Z" fill="black"/>
<path d="M126.899 46.149C126.899 50.6465 124.161 52.9931 120.837 52.9931C117.513 52.9931 114.971 50.2554 114.971 46.3445C114.971 42.4336 117.513 39.5005 121.033 39.5005C124.552 39.5005 126.899 42.2381 126.899 46.149ZM116.731 46.3445C116.731 49.0822 118.295 51.6243 120.837 51.6243C123.379 51.6243 124.943 49.0822 124.943 46.149C124.943 43.6069 123.575 40.8693 120.837 40.8693C118.099 40.8693 116.731 43.4114 116.731 46.3445Z" fill="black"/>
<path d="M129.637 39.8916C129.637 39.8916 131.788 39.696 132.961 39.696C134.721 39.696 135.894 40.0871 136.676 40.6738C137.263 41.2604 137.654 42.2381 137.654 43.2159C137.654 44.9758 136.481 46.149 135.112 46.5401C136.09 46.9312 136.676 47.9089 137.067 49.2777C137.459 51.0376 137.85 52.4064 138.045 52.7975H136.285C136.285 52.7975 135.699 51.2332 135.503 49.6688C135.112 47.9089 134.33 47.1267 132.961 47.1267H131.397V52.7975H129.637V39.8916ZM131.201 45.9535H132.961C134.721 45.9535 135.894 44.9758 135.894 43.4114C135.894 41.6515 134.721 41.0649 132.961 40.8693C132.179 40.8693 131.592 40.8693 131.201 40.8693V45.5624V45.9535Z" fill="black"/>
<path d="M142.148 39.8918V52.9933H140.388V39.8918H142.148Z" fill="black"/>
<path d="M145.472 52.7975V39.696H147.232L151.338 46.3446C152.316 47.9089 153.098 49.2777 153.685 50.6466C153.685 48.8867 153.685 47.3223 153.685 45.1713V39.696H155.249V52.7975H153.489L149.383 46.149C148.405 44.7802 147.623 43.2159 146.841 41.847C146.841 43.607 146.841 45.1713 146.841 47.3223V52.9931H145.276L145.472 52.7975Z" fill="black"/>
<path d="M168.549 52.4065C168.549 52.4065 166.202 53.1886 164.442 53.1886C162.487 53.1886 160.923 52.602 159.554 51.4287C158.381 50.2555 157.794 48.4956 157.794 46.5401C157.794 42.6292 160.532 39.696 164.834 39.696C166.398 39.696 167.571 40.0871 168.158 40.2827L167.767 41.6515C167.767 41.6515 166.202 41.0649 164.834 41.0649C161.705 41.0649 159.554 43.0203 159.554 46.3446C159.554 49.6688 161.509 51.6243 164.638 51.6243C165.811 51.6243 166.593 51.6243 166.985 51.2332V47.3223H164.247V45.9535H168.549V52.2109V52.4065Z" fill="black"/>
<path d="M175.591 39.8916C176.569 39.8916 177.938 39.696 179.111 39.696C181.458 39.696 183.218 40.2827 184.391 41.2604C185.564 42.2381 186.151 43.8025 186.151 45.9535C186.151 48.1045 185.564 49.8644 184.195 51.0376C183.022 52.2109 180.871 52.9931 178.329 52.9931C177.156 52.9931 176.178 52.9931 175.2 52.9931V40.0871L175.591 39.8916ZM177.351 51.6243C177.351 51.6243 178.329 51.6243 179.111 51.6243C182.631 51.6243 184.782 49.6688 184.782 46.149C184.782 43.0203 183.022 41.0649 179.502 41.0649C178.72 41.0649 177.938 41.0649 177.547 41.0649V51.4287L177.351 51.6243Z" fill="black"/>
<path d="M190.642 39.8918V52.9933H188.882V39.8918H190.642Z" fill="black"/>
<path d="M203.943 52.4065C203.943 52.4065 201.597 53.1886 199.837 53.1886C197.882 53.1886 196.317 52.602 194.948 51.4287C193.775 50.2555 193.188 48.4956 193.188 46.5401C193.188 42.6292 195.926 39.696 200.228 39.696C201.792 39.696 202.966 40.0871 203.552 40.2827L203.161 41.6515C203.161 41.6515 201.597 41.0649 200.228 41.0649C197.099 41.0649 194.948 43.0203 194.948 46.3446C194.948 49.6688 196.904 51.6243 200.033 51.6243C201.206 51.6243 201.988 51.6243 202.379 51.2332V47.3223H199.641V45.9535H203.943V52.2109V52.4065Z" fill="black"/>
<path d="M208.631 39.8918V52.9933H206.871V39.8918H208.631Z" fill="black"/>
<path d="M214.506 41.2607H210.595V39.8918H220.372V41.2607H216.461V52.9933H214.701V41.2607H214.506Z" fill="black"/>
<path d="M222.718 48.6911L221.349 52.7975H219.589L224.086 39.696H226.042L230.539 52.7975H228.779L227.411 48.6911H222.718ZM227.02 47.5178L225.651 43.8025C225.651 43.8025 225.26 42.2381 225.064 41.4559C225.064 41.4559 224.673 43.0203 224.477 43.8025L223.109 47.5178H227.02Z" fill="black"/>
<path d="M232.88 39.8918H234.64V51.6245H240.311V52.9933H233.075V39.8918H232.88Z" fill="black"/>
<path d="M78.7949 9.18988H70.582V4.10571H93.0697V9.18988H84.8568V32.8508H78.7949V9.18988Z" fill="black"/>
<path d="M120.448 21.9003C120.448 25.6156 119.47 28.3532 117.319 30.1132C115.168 31.8731 112.43 32.8508 108.715 32.8508C105 32.8508 102.067 31.8731 100.111 30.1132C98.1557 28.3532 96.9824 25.6156 96.9824 21.9003V4.10571H103.044V21.9003C103.044 21.9003 103.044 23.4646 103.044 24.0513C103.044 24.8334 103.435 25.4201 103.826 26.0067C104.218 26.5933 104.804 26.9844 105.586 27.3755C106.369 27.7666 107.346 27.9622 108.52 27.9622C110.671 27.9622 112.235 27.5711 113.017 26.5933C113.799 25.6156 114.19 24.0513 114.19 22.0958V4.30126H120.252V22.0958L120.448 21.9003Z" fill="black"/>
<path d="M124.548 4.10571H139.409C140.583 4.10571 141.756 4.30125 142.733 4.69234C143.711 5.08343 144.493 5.67006 145.276 6.2567C146.058 7.03888 146.449 7.82105 146.84 8.60323C147.231 9.58095 147.427 10.5587 147.427 11.5364C147.427 13.1008 147.035 14.4696 146.449 15.6429C145.862 16.8161 144.689 17.7938 143.125 18.3805C143.125 18.3805 144.493 18.9671 144.884 19.3582C145.276 19.7493 145.862 20.3359 146.058 20.9225C146.449 21.5092 146.644 22.0958 146.644 22.878C146.644 23.4646 146.84 25.4201 147.035 26.2023C147.035 26.5934 147.035 27.18 147.035 27.7666C147.035 28.3533 147.035 28.9399 147.035 29.5265C147.035 30.1132 147.035 30.6998 147.427 31.2864C147.427 31.8731 147.818 32.2641 148.013 32.6552H141.951C141.951 32.6552 141.56 31.6775 141.56 31.2864C141.56 30.6998 141.56 30.3087 141.365 29.7221C141.365 29.1354 141.365 28.5488 141.365 27.9622C141.365 27.3755 141.365 26.7889 141.365 26.2023C141.169 24.8334 140.778 22.4869 139.996 21.9003C139.214 21.3136 138.236 20.9225 136.672 20.9225H130.61V32.8508H124.548V4.30126V4.10571ZM130.61 16.425H137.258C138.627 16.425 139.605 16.0339 140.387 15.4473C141.169 14.8607 141.365 13.883 141.365 12.5141C141.365 11.1453 140.974 10.1676 140.387 9.58096C139.605 8.99432 138.627 8.60323 137.258 8.60323H130.61V16.2295V16.425Z" fill="black"/>
<path d="M151.54 4.10571H157.602L169.139 23.6602V4.10571H174.81V32.6552H168.748L157.406 13.1008V32.6552H151.736V4.10571H151.54Z" fill="black"/>
<path d="M191.236 4.10546H202.968C204.728 4.10546 206.293 4.30101 207.857 4.88764C209.421 5.47427 210.79 6.25645 211.768 7.42972C212.941 8.60299 213.723 9.97181 214.31 11.7317C214.896 13.4916 215.288 16.8159 215.288 18.9669C215.288 20.9223 215.092 22.8777 214.505 24.4421C213.919 26.202 213.137 27.5708 212.159 28.7441C211.181 29.9174 209.812 30.8951 208.248 31.6773C206.684 32.4594 204.924 32.655 202.773 32.655H191.04V3.90991L191.236 4.10546ZM197.102 27.7664H202.382C202.382 27.7664 204.142 27.7664 204.924 27.3753C205.706 27.1797 206.488 26.5931 207.075 26.0065C207.661 25.4198 208.248 24.4421 208.639 23.4644C209.03 22.4867 209.226 21.1178 209.226 19.5535C209.226 18.1847 209.226 15.447 208.835 14.4693C208.639 13.2961 208.052 12.3183 207.466 11.5362C206.879 10.754 206.097 10.1673 205.119 9.77626C204.142 9.38517 202.773 9.18963 201.404 9.18963H197.102V27.7664Z" fill="black"/>
<path d="M219.589 4.10571H225.651V32.8508H219.589V4.10571Z" fill="black"/>
<path d="M250.675 28.9394C249.502 30.3082 248.329 31.2859 247.156 31.8726C245.787 32.4592 244.614 32.6547 243.245 32.6547C241.094 32.6547 239.138 32.2636 237.574 31.4815C235.814 30.6993 234.445 29.7216 233.272 28.3527C232.099 26.9839 231.317 25.6151 230.534 23.8552C229.948 22.0953 229.557 20.3354 229.557 18.38C229.557 16.4245 229.948 14.4691 230.534 12.7092C231.121 10.9493 232.099 9.38491 233.272 8.0161C234.445 6.64729 235.814 5.66957 237.574 4.88739C239.138 4.10521 241.094 3.71411 243.245 3.71411C244.614 3.71411 245.982 3.90967 247.351 4.30076C248.72 4.69185 249.893 5.27849 250.871 6.06066C251.849 6.84284 252.826 7.82056 253.413 9.18938C254.195 10.3626 254.586 11.7315 254.782 13.2958H249.111C248.72 11.7315 248.133 10.5582 246.96 9.776C245.982 8.99383 244.614 8.60273 243.245 8.60273C241.876 8.60273 240.703 8.79827 239.725 9.38491C238.747 9.97154 237.965 10.5582 237.378 11.5359C236.792 12.5136 236.401 13.4913 236.01 14.4691C235.814 15.6423 235.619 16.8156 235.619 17.9889C235.619 19.1621 235.619 20.3354 236.01 21.3131C236.205 22.4864 236.792 23.4641 237.378 24.2463C237.965 25.0285 238.747 25.8107 239.725 26.3973C240.703 26.9839 241.876 27.1795 243.245 27.1795C245.2 27.1795 246.765 26.5929 247.938 25.6151C249.111 24.6374 249.698 23.073 249.893 21.3131H243.831V16.8156H255.369V31.677H251.458L250.871 28.5483L250.675 28.9394Z" fill="black"/>
<path d="M302.108 4.10571H308.365L318.534 32.8508H312.276L310.125 26.7889H299.957L297.806 32.8508H291.744L302.108 4.10571ZM301.521 20.9225H308.561L305.041 10.9498L301.521 20.9225Z" fill="black"/>
<path d="M322.642 4.10571H328.703V27.7666H342.001V32.8508H322.642V4.10571Z" fill="black"/>
<path d="M50.2441 28.7437C50.2441 42.4318 39.2936 53.3823 25.6054 53.3823C11.9173 53.3823 0.966797 42.4318 0.966797 28.7437C0.966797 22.8773 2.92225 17.5976 6.44205 13.2957L10.9396 21.313C9.76631 23.464 9.17967 26.0061 9.17967 28.7437C9.17967 37.5432 16.0237 44.5828 24.6277 45.1694C25.0188 45.1694 25.2143 45.1694 25.6054 45.1694C25.9965 45.1694 26.1921 45.1694 26.5832 45.1694C35.1871 44.7783 42.0312 37.5432 42.0312 28.7437C42.0312 26.0061 41.4445 23.6595 40.2713 21.313L44.7688 13.2957C48.0931 17.5976 50.2441 22.8773 50.2441 28.7437Z" fill="#F27822"/>
<path d="M33.8144 4.10644H29.708V0H21.4951V32.8515H29.708V12.3193H33.8144V4.10644Z" fill="#F27822"/>
<path d="M277.471 9.18988H269.258V4.10571H291.745V9.18988H283.533V32.8508H277.471V9.18988Z" fill="black"/>
<path d="M259.09 4.10571H265.152V32.8508H259.09V4.10571Z" fill="black"/>
</svg>
