<svg width="20" height="25" viewBox="0 0 20 25" fill="none" xmlns="http://www.w3.org/2000/svg">
<g id="Group">
<path id="Vector" d="M3.25551 15.7801C3.12571 15.7802 2.99756 15.7511 2.88055 15.6949C2.76353 15.6388 2.66065 15.557 2.57953 15.4557C0.259245 12.5576 -0.160699 8.54286 1.50956 5.22786C1.61279 5.02294 1.7932 4.86743 2.01109 4.79553C2.22899 4.72363 2.46652 4.74123 2.67143 4.84446C2.87635 4.94769 3.03186 5.1281 3.10376 5.34599C3.17567 5.56389 3.15806 5.80142 3.05483 6.00633C2.38606 7.33905 2.11309 8.83547 2.26822 10.3185C2.42335 11.8015 3.00009 13.209 3.93018 14.3745C4.032 14.5017 4.09584 14.655 4.11434 14.8169C4.13284 14.9787 4.10525 15.1425 4.03476 15.2894C3.96426 15.4363 3.85372 15.5603 3.71585 15.6471C3.57799 15.7339 3.41842 15.78 3.25551 15.7801Z" fill="#808D95"/>
<path id="Vector_2" d="M3.77887 4.37267C3.6074 4.37263 3.43981 4.32164 3.29739 4.22616C3.15496 4.13068 3.04413 3.99503 2.97896 3.83642C2.9138 3.67782 2.89724 3.50343 2.9314 3.3354C2.96555 3.16737 3.04888 3.01328 3.17079 2.8927L3.47829 2.58866C3.55908 2.50881 3.65481 2.44565 3.76001 2.40279C3.86521 2.35994 3.97782 2.33822 4.09141 2.33888C4.205 2.33954 4.31735 2.36257 4.42205 2.40666C4.52674 2.45074 4.62172 2.51501 4.70158 2.5958C4.78143 2.67659 4.84459 2.77232 4.88745 2.87752C4.9303 2.98272 4.95202 3.09533 4.95136 3.20892C4.9507 3.32251 4.92767 3.43486 4.88358 3.53956C4.8395 3.64425 4.77523 3.73923 4.69444 3.81909L4.38694 4.12312C4.22517 4.28336 4.00656 4.37307 3.77887 4.37267Z" fill="#02955F"/>
<path id="Vector_3" d="M16.7584 15.7797C16.5954 15.7796 16.4358 15.7336 16.2979 15.6468C16.1599 15.56 16.0493 15.4361 15.9788 15.2892C15.9082 15.1423 15.8806 14.9785 15.8991 14.8166C15.9176 14.6547 15.9814 14.5013 16.0833 14.3741C18.1804 11.7554 18.3456 7.97892 16.4868 5.19068C14.3693 2.01451 10.0237 0.838145 6.59193 2.51273C6.38575 2.61332 6.14806 2.62789 5.93114 2.55323C5.71422 2.47858 5.53584 2.3208 5.43525 2.11463C5.33466 1.90845 5.32009 1.67076 5.39474 1.45384C5.4694 1.23691 5.62718 1.05854 5.83335 0.957944C10.0964 -1.12318 15.2948 0.284564 17.9261 4.23056C20.1988 7.63898 19.9964 12.2545 17.4339 15.4549C17.353 15.5563 17.2502 15.6382 17.1333 15.6945C17.0163 15.7507 16.8882 15.7798 16.7584 15.7797Z" fill="#808D95"/>
<path id="Vector_4" d="M10.0142 14.688C10.0137 14.688 10.0137 14.688 10.0142 14.688C8.74051 14.688 7.52176 14.2339 6.58284 13.4091C4.7984 11.8418 4.30753 9.18286 5.41512 7.0866C6.30302 5.40683 8.1147 4.32129 10.031 4.32129C10.4506 4.32129 10.8688 4.37275 11.2731 4.47439C13.5467 5.04484 15.1962 7.16185 15.1962 9.50852C15.1952 10.3379 14.9959 11.1551 14.6149 11.8918C14.2339 12.6286 13.6823 13.2636 13.0061 13.7439C12.1351 14.3614 11.101 14.688 10.0142 14.688ZM10.031 6.05123C8.74829 6.05123 7.53647 6.77478 6.94483 7.89492C6.20657 9.29141 6.53483 11.0642 7.7246 12.1095C8.34738 12.6566 9.16045 12.958 10.0137 12.958C10.7264 12.9622 11.4229 12.7437 12.0053 12.3331C12.4566 12.013 12.8246 11.5895 13.0789 11.0982C13.3331 10.6068 13.4661 10.0618 13.4667 9.50852C13.4667 7.94422 12.3673 6.53259 10.8523 6.15243C10.5838 6.08518 10.3079 6.05119 10.031 6.05123ZM10.0064 24.213C9.84344 24.213 9.68381 24.167 9.54589 24.0802C9.40796 23.9934 9.29735 23.8694 9.2268 23.7226C9.15625 23.5757 9.12863 23.4118 9.14711 23.2499C9.1656 23.088 9.22944 22.9347 9.33128 22.8075L16.0832 14.374C16.2266 14.1948 16.4353 14.0799 16.6634 14.0546C16.8914 14.0293 17.1202 14.0957 17.2994 14.239C17.4786 14.3824 17.5934 14.5911 17.6187 14.8192C17.644 15.0472 17.5777 15.276 17.4343 15.4552L10.6824 23.8887C10.6012 23.99 10.4984 24.0717 10.3814 24.1279C10.2643 24.184 10.1362 24.2131 10.0064 24.213Z" fill="#808D95"/>
<path id="Vector_5" d="M10.0082 24.2135C9.87846 24.2136 9.75031 24.1845 9.63329 24.1283C9.51627 24.0722 9.41339 23.9904 9.33227 23.8891L2.58031 15.4556C2.50931 15.3669 2.45649 15.2651 2.42485 15.156C2.39321 15.0468 2.38337 14.9325 2.3959 14.8196C2.40843 14.7067 2.44308 14.5973 2.49788 14.4978C2.55267 14.3983 2.62653 14.3105 2.71524 14.2395C2.80396 14.1685 2.90578 14.1157 3.01491 14.084C3.12404 14.0524 3.23833 14.0426 3.35126 14.0551C3.46419 14.0676 3.57355 14.1023 3.67309 14.1571C3.77263 14.2118 3.8604 14.2857 3.93139 14.3744L10.6834 22.8079C10.7852 22.9351 10.849 23.0885 10.8675 23.2504C10.886 23.4123 10.8584 23.5761 10.7878 23.723C10.7173 23.8699 10.6067 23.9938 10.4688 24.0806C10.3308 24.1674 10.1712 24.2134 10.0082 24.2135Z" fill="#808D95"/>
</g>
</svg>
