<svg width="21" height="17" viewBox="0 0 21 17" fill="none" xmlns="http://www.w3.org/2000/svg">
<g id="more" clip-path="url(#clip0_123_497)">
<path id="Path 603" d="M0.402298 1.27462C0.402298 1.00702 0.508602 0.750379 0.697826 0.561154C0.887051 0.37193 1.14369 0.265625 1.4113 0.265625H14.5343C14.6669 0.265625 14.7981 0.291737 14.9206 0.342469C15.0431 0.393201 15.1544 0.46756 15.2481 0.561301C15.3419 0.655041 15.4162 0.766328 15.467 0.888806C15.5177 1.01128 15.5438 1.14256 15.5438 1.27513C15.5438 1.40769 15.5177 1.53897 15.467 1.66144C15.4162 1.78392 15.3419 1.89521 15.2481 1.98895C15.1544 2.08269 15.0431 2.15705 14.9206 2.20778C14.7981 2.25851 14.6669 2.28463 14.5343 2.28463H1.4113C1.27871 2.28463 1.14742 2.25849 1.02494 2.20772C0.902456 2.15695 0.791182 2.08254 0.697474 1.98874C0.603765 1.89494 0.529463 1.78359 0.478815 1.66106C0.428167 1.53853 0.402166 1.40721 0.402298 1.27462ZM19.5823 7.33162H1.4113C1.14356 7.33162 0.886791 7.43798 0.697474 7.6273C0.508156 7.81662 0.401796 8.07339 0.401796 8.34112C0.401796 8.60886 0.508156 8.86563 0.697474 9.05495C0.886791 9.24427 1.14356 9.35063 1.4113 9.35063H19.5823C19.85 9.35063 20.1068 9.24427 20.2961 9.05495C20.4854 8.86563 20.5918 8.60886 20.5918 8.34112C20.5918 8.07339 20.4854 7.81662 20.2961 7.6273C20.1068 7.43798 19.85 7.33162 19.5823 7.33162ZM10.4973 14.3976H1.4113C1.14356 14.3976 0.886791 14.504 0.697474 14.6933C0.508156 14.8826 0.401796 15.1394 0.401796 15.4071C0.401796 15.6749 0.508156 15.9316 0.697474 16.1209C0.886791 16.3103 1.14356 16.4166 1.4113 16.4166H10.4963C10.764 16.4166 11.0208 16.3103 11.2101 16.1209C11.3994 15.9316 11.5058 15.6749 11.5058 15.4071C11.5058 15.1394 11.3994 14.8826 11.2101 14.6933C11.0208 14.504 10.764 14.3976 10.4963 14.3976H10.4973Z" fill="#02955F"/>
</g>
<defs>
<clipPath id="clip0_123_497">
<rect width="20.189" height="16.151" fill="white" transform="translate(0.402344 0.265625)"/>
</clipPath>
</defs>
</svg>
