<svg width="78" height="78" viewBox="0 0 78 78" fill="none" xmlns="http://www.w3.org/2000/svg">
<path d="M67.3518 12.9446L73.6605 6.00421C74.2226 5.37062 74.5123 4.54101 74.4668 3.69525C74.4213 2.84949 74.0443 2.05575 73.4175 1.48612C72.7906 0.916482 71.9646 0.616863 71.1183 0.652219C70.2721 0.687576 69.4739 1.05506 68.8968 1.67499L62.588 8.6114C54.9065 2.71191 45.2881 -0.0846262 35.641 0.776595C25.9938 1.63782 17.0228 6.09387 10.5078 13.2607C3.99275 20.4275 0.409704 29.7815 0.469486 39.4668C0.529269 49.1522 4.22751 58.4612 10.8305 65.5471L4.52177 72.4875C4.23155 72.7992 4.00609 73.1655 3.85846 73.5651C3.71083 73.9646 3.64397 74.3895 3.66175 74.815C3.67953 75.2406 3.7816 75.6584 3.96204 76.0442C4.14248 76.4301 4.39771 76.7762 4.71293 77.0627C5.02815 77.3492 5.39709 77.5702 5.79837 77.7131C6.19965 77.8559 6.62528 77.9176 7.05061 77.8948C7.47593 77.8719 7.89248 77.7648 8.27612 77.5798C8.65976 77.3947 9.00286 77.1353 9.28552 76.8167L15.5943 69.8803C23.2758 75.7798 32.8942 78.5763 42.5414 77.7151C52.1885 76.8539 61.1595 72.3978 67.6745 65.231C74.1896 58.0642 77.7726 48.7102 77.7128 39.0249C77.653 29.3395 73.9548 20.0305 67.3518 12.9446ZM6.90365 39.2459C6.90723 33.2869 8.56491 27.446 11.6921 22.3736C14.8192 17.3011 19.2931 13.1964 24.6154 10.5165C29.9377 7.83657 35.8994 6.68671 41.8366 7.19499C47.7738 7.70326 53.4534 9.84971 58.2427 13.3953L15.1919 60.7632C9.85443 54.868 6.90018 47.1984 6.90365 39.2459ZM39.0911 71.4333C32.1911 71.4406 25.4735 69.2179 19.9396 65.0964L62.9904 17.7285C67.1554 22.3491 69.8914 28.0783 70.8668 34.2222C71.8422 40.366 71.0152 46.6609 68.4861 52.3443C65.9569 58.0277 61.834 62.8558 56.6168 66.2439C51.3996 69.6319 45.3119 71.4345 39.0911 71.4333Z" fill="#2C3735"/>
</svg>
