<svg width="28" height="36" viewBox="0 0 28 36" fill="none" xmlns="http://www.w3.org/2000/svg">
<path d="M7.79247 26.944L1.54218 30.3533C1.18266 30.5538 0.84627 30.7932 0.539062 31.0671C4.30994 34.2544 9.08953 36.0001 14.027 35.9934C19.1287 35.9934 23.8028 34.1674 27.4366 31.1367C27.1002 30.8474 26.7302 30.5995 26.3347 30.3984L19.6417 27.0523C19.2177 26.8403 18.8612 26.5145 18.612 26.1113C18.3627 25.7081 18.2307 25.2434 18.2307 24.7694V22.1434C18.4188 21.9292 18.6339 21.6541 18.8639 21.3292C19.767 20.0459 20.4686 18.632 20.9444 17.1366C21.8029 16.8718 22.4353 16.0789 22.4353 15.1367V12.3336C22.4353 11.7171 22.161 11.1661 21.7349 10.7803V6.72836C21.7349 6.72836 22.5673 0.422729 14.0278 0.422729C5.48823 0.422729 6.32061 6.72836 6.32061 6.72836V10.7803C6.10132 10.9755 5.92562 11.2147 5.80495 11.4824C5.68428 11.75 5.62134 12.0401 5.62024 12.3336V15.1367C5.62024 15.875 6.00837 16.5247 6.58937 16.9002C7.28973 19.9491 9.12364 22.1434 9.12364 22.1434V24.7046C9.12304 25.1629 8.99915 25.6127 8.76494 26.0067C8.53074 26.4007 8.19484 26.7245 7.79247 26.944Z" fill="#D1A93B"/>
</svg>
