<svg width="23" height="21" viewBox="0 0 23 21" fill="none" xmlns="http://www.w3.org/2000/svg">
<g id="svgexport-17 - 2023-09-19T002304.578 1" clip-path="url(#clip0_123_492)">
<g id="Group">
<path id="Vector" d="M21.5833 16.625H19.1423C18.7453 15.3641 17.5317 14.4375 16.0833 14.4375C14.635 14.4375 13.4222 15.3641 13.0244 16.625H1.41665C0.910652 16.625 0.5 17.017 0.5 17.5C0.5 17.983 0.910652 18.375 1.41665 18.375H13.0244C13.4213 19.6358 14.635 20.5625 16.0833 20.5625C17.5316 20.5625 18.7444 19.6358 19.1422 18.375H21.5833C22.0902 18.375 22.5 17.983 22.5 17.5C22.5 17.017 22.0903 16.625 21.5833 16.625ZM16.0833 18.8125C15.3252 18.8125 14.7083 18.2236 14.7083 17.5C14.7083 16.7764 15.3252 16.1875 16.0833 16.1875C16.8414 16.1875 17.4583 16.7764 17.4583 17.5C17.4583 18.2236 16.8414 18.8125 16.0833 18.8125ZM21.5833 2.62499H19.1423C18.7444 1.36413 17.5317 0.4375 16.0833 0.4375C14.635 0.4375 13.4222 1.36413 13.0244 2.62499H1.41665C0.910652 2.62499 0.5 3.01697 0.5 3.49997C0.5 3.98297 0.910652 4.37496 1.41665 4.37496H13.0244C13.4222 5.63586 14.635 6.56249 16.0833 6.56249C17.5317 6.56249 18.7444 5.63586 19.1423 4.375H21.5833C22.0903 4.375 22.5 3.98301 22.5 3.50001C22.5 3.01701 22.0903 2.62499 21.5833 2.62499ZM16.0833 4.81247C15.3252 4.81247 14.7083 4.22361 14.7083 3.49997C14.7083 2.77633 15.3252 2.18747 16.0833 2.18747C16.8414 2.18747 17.4583 2.77633 17.4583 3.49997C17.4583 4.22361 16.8414 4.81247 16.0833 4.81247ZM21.5833 9.625H9.9756C9.57775 8.36414 8.365 7.43751 6.9167 7.43751C5.46839 7.43751 4.2556 8.36414 3.85779 9.625H1.41665C0.910652 9.625 0.5 10.017 0.5 10.5C0.5 10.983 0.910652 11.375 1.41665 11.375H3.85775C4.2556 12.6358 5.46835 13.5625 6.91665 13.5625C8.36496 13.5625 9.57775 12.6358 9.97555 11.375H21.5833C22.0902 11.375 22.5 10.983 22.5 10.5C22.5 10.017 22.0903 9.625 21.5833 9.625ZM6.91665 11.8125C6.15855 11.8125 5.54165 11.2236 5.54165 10.5C5.54165 9.77635 6.15855 9.18749 6.91665 9.18749C7.67475 9.18749 8.29165 9.77635 8.29165 10.5C8.29165 11.2236 7.67475 11.8125 6.91665 11.8125Z" fill="#808D95"/>
</g>
</g>
<defs>
<clipPath id="clip0_123_492">
<rect width="22" height="21" fill="white" transform="translate(0.5)"/>
</clipPath>
</defs>
</svg>
