<svg width="31" height="31" viewBox="0 0 31 31" fill="none" xmlns="http://www.w3.org/2000/svg">
<g clip-path="url(#clip0_7249_6274)">
<path d="M15.5337 30.1766C23.818 30.1766 30.5338 23.4609 30.5338 15.1766C30.5338 6.89232 23.818 0.176575 15.5337 0.176575C7.24943 0.176575 0.533691 6.89232 0.533691 15.1766C0.533691 23.4609 7.24943 30.1766 15.5337 30.1766Z" fill="#DB1846"/>
<path d="M30.5337 15.1766C30.5337 23.4266 23.7837 30.1766 15.5337 30.1766C10.7525 30.1766 6.53373 28.0204 3.81494 24.5517C6.34619 26.6142 9.62746 27.8329 13.1899 27.8329C21.44 27.8329 28.19 21.0829 28.19 12.8329C28.19 9.27042 26.9712 5.98916 24.9087 3.4579C28.3775 6.17656 30.5337 10.3953 30.5337 15.1766Z" fill="#B10C0C"/>
<path d="M17.9233 12.2251L13.2869 12.8062L13.1213 13.5759L14.0336 13.7414C14.6269 13.884 14.745 14.0971 14.6162 14.6905L13.1213 21.7079C12.7304 23.5217 13.336 24.3757 14.7572 24.3757C15.8611 24.3757 17.1398 23.8667 17.7209 23.166L17.8987 22.3243C17.4955 22.68 16.9022 22.8225 16.5112 22.8225C15.9547 22.8225 15.7538 22.4316 15.8949 21.7432L17.9233 12.2251ZM18.0628 8.00117C18.0628 8.53792 17.8496 9.05268 17.47 9.43222C17.0905 9.81176 16.5757 10.025 16.039 10.025C15.5022 10.025 14.9875 9.81176 14.6079 9.43222C14.2284 9.05268 14.0152 8.53792 14.0152 8.00117C14.0152 7.46442 14.2284 6.94966 14.6079 6.57012C14.9875 6.19058 15.5022 5.97736 16.039 5.97736C16.5757 5.97736 17.0905 6.19058 17.47 6.57012C17.8496 6.94966 18.0628 7.46442 18.0628 8.00117Z" fill="white"/>
</g>
<defs>
<clipPath id="clip0_7249_6274">
<rect width="30" height="30" fill="white" transform="translate(0.533691 0.176575)"/>
</clipPath>
</defs>
</svg>
