<svg width="31" height="31" viewBox="0 0 31 31" fill="none" xmlns="http://www.w3.org/2000/svg">
<g clip-path="url(#clip0_7249_6260)">
<path d="M15.5337 30.848C23.818 30.848 30.5338 24.1323 30.5338 15.848C30.5338 7.5637 23.818 0.847961 15.5337 0.847961C7.24943 0.847961 0.533691 7.5637 0.533691 15.848C0.533691 24.1323 7.24943 30.848 15.5337 30.848Z" fill="#0FC763"/>
<path d="M30.5337 15.848C30.5337 24.098 23.7837 30.848 15.5337 30.848C10.7525 30.848 6.53373 28.6918 3.81494 25.223C6.34619 27.2855 9.62746 28.5043 13.1899 28.5043C21.44 28.5043 28.19 21.7543 28.19 13.5043C28.19 9.9418 26.9712 6.66054 24.9087 4.12929C28.3775 6.84794 30.5337 11.0667 30.5337 15.848Z" fill="#0CB157"/>
<path d="M23.6901 11.5354L13.9401 22.223C13.2839 22.973 12.1589 22.973 11.5026 22.223L7.37762 17.6292C6.81514 16.9729 6.81514 15.9417 7.47135 15.2854C8.12763 14.723 9.15885 14.723 9.81513 15.3792L12.7214 18.6604L21.2526 9.37919C21.9089 8.72292 22.9401 8.62918 23.5964 9.28546C24.2526 9.84794 24.2526 10.973 23.6901 11.5354Z" fill="white"/>
</g>
<defs>
<clipPath id="clip0_7249_6260">
<rect width="30" height="30" fill="white" transform="translate(0.533691 0.847961)"/>
</clipPath>
</defs>
</svg>
